<svg width="100%" height="100%" id="svg" viewBox="0 0 1440 590" xmlns="http://www.w3.org/2000/svg" class="transition duration-300 ease-in-out delay-150"><defs><linearGradient id="gradient" x1="0%" y1="50%" x2="100%" y2="50%"><stop offset="5%" stop-color="#F78DA7"></stop><stop offset="95%" stop-color="#8ED1FC"></stop></linearGradient></defs><path d="M 0,600 C 0,600 0,200 0,200 C 101.47179487179486,190.8974358974359 202.9435897435897,181.7948717948718 277,197 C 351.0564102564103,212.2051282051282 397.697435897436,251.71794871794873 459,268 C 520.302564102564,284.28205128205127 596.2666666666667,277.33333333333337 675,259 C 753.7333333333333,240.66666666666666 835.2358974358973,210.94871794871793 928,217 C 1020.7641025641027,223.05128205128207 1124.7897435897437,264.87179487179486 1212,268 C 1299.2102564102563,271.12820512820514 1369.605128205128,235.56410256410257 1440,200 C 1440,200 1440,600 1440,600 Z" stroke="none" stroke-width="0" fill="url(#gradient)" fill-opacity="0.53" class="transition-all duration-300 ease-in-out delay-150 path-0"></path><defs><linearGradient id="gradient" x1="0%" y1="50%" x2="100%" y2="50%"><stop offset="5%" stop-color="#F78DA7"></stop><stop offset="95%" stop-color="#8ED1FC"></stop></linearGradient></defs><path d="M 0,600 C 0,600 0,400 0,400 C 89.05897435897435,402.08717948717947 178.1179487179487,404.174358974359 267,408 C 355.8820512820513,411.825641025641 444.58717948717947,417.3897435897436 514,405 C 583.4128205128205,392.6102564102564 633.5333333333333,362.26666666666665 708,370 C 782.4666666666667,377.73333333333335 881.2794871794872,423.5435897435898 976,423 C 1070.7205128205128,422.4564102564102 1161.348717948718,375.5589743589744 1238,364 C 1314.651282051282,352.4410256410256 1377.3256410256408,376.2205128205128 1440,400 C 1440,400 1440,600 1440,600 Z" stroke="none" stroke-width="0" fill="url(#gradient)" fill-opacity="1" class="transition-all duration-300 ease-in-out delay-150 path-1"></path></svg>